<?xml version="1.0" encoding="utf-8"?>
<!-- License: MIT. Made by humbleicons: https://github.com/zraly/humbleicons -->
<svg width="800px" height="800px" viewBox="0 0 24 24" xmlns="http://www.w3.org/2000/svg" fill="none">
  <path stroke="#000000" stroke-linecap="round" stroke-linejoin="round" stroke-width="2" d="M9 3v3m6-3v3m3 3h3m-3 6h3m-6 3v3m-6-3v3m-3-6H3m3-6H3m6.5 4.5v-3a1 1 0 0 1 1-1h3a1 1 0 0 1 1 1v3a1 1 0 0 1-1 1h-3a1 1 0 0 1-1-1ZM7 18h10a1 1 0 0 0 1-1V7a1 1 0 0 0-1-1H7a1 1 0 0 0-1 1v10a1 1 0 0 0 1 1Z"/>
</svg>