<?xml version="1.0" ?>
<!-- License: CC Attribution. Made by efeaco: https://dribbble.com/efeaco -->
<svg fill="#000000" width="800px" height="800px" viewBox="0 0 64 64" data-name="Layer 1" id="Layer_1" xmlns="http://www.w3.org/2000/svg"><title/><path d="M53.86,51.8H10.14a1.5,1.5,0,0,1-1.5-1.5V37.45a1.5,1.5,0,0,1,1.5-1.5H25.46a1.5,1.5,0,0,1,1.5,1.5V39.8H37V37.45a1.5,1.5,0,0,1,1.5-1.5H53.86a1.5,1.5,0,0,1,1.5,1.5V50.3A1.5,1.5,0,0,1,53.86,51.8Zm-42.22-3H52.36V39H40V41.3a1.5,1.5,0,0,1-1.5,1.5H25.46A1.5,1.5,0,0,1,24,41.3V39H11.64Z"/><path d="M38.54,42.8H25.46A1.5,1.5,0,0,1,24,41.3V39H10.14a1.53,1.53,0,0,1-1.25-.67,1.49,1.49,0,0,1-.13-1.42l10-23.75a1.5,1.5,0,0,1,1.38-.91H45.86a1.5,1.5,0,0,1,1.42,1l8,23.75a1.48,1.48,0,0,1-.2,1.35,1.52,1.52,0,0,1-1.22.63H40V41.3A1.5,1.5,0,0,1,38.54,42.8ZM27,39.8H37V37.45a1.5,1.5,0,0,1,1.5-1.5H51.77l-7-20.75H21.14L12.4,36H25.46a1.5,1.5,0,0,1,1.5,1.5Z"/></svg>