<?xml version="1.0" encoding="iso-8859-1"?>
<!-- Generator: Adobe Illustrator 19.0.0, SVG Export Plug-In . SVG Version: 6.00 Build 0)  -->
<!-- License: CC0. Made by SVG Repo: https://www.svgrepo.com/svg/85696/computer -->
<svg version="1.1" id="Capa_1" xmlns="http://www.w3.org/2000/svg" xmlns:xlink="http://www.w3.org/1999/xlink" x="0px" y="0px"
	 viewBox="0 0 490 490" style="enable-background:new 0 0 490 490;" xml:space="preserve">
<g>
	<g>
		<path d="M488.1,441.8H295.7v-28.4h-41.2v-47h91.7V0H143.4v366.4h91.7v47h-41.2v28.4H1.6v19.8h192.3V490h102.2v-28.4h192.3v-19.8
			L488.1,441.8L488.1,441.8z M168.6,31.5h152.7V82H168.6V31.5z M168.6,97.9h152.7v50.5H168.6V97.9z M168.6,167.1h87.8v21.4h-87.8
			L168.6,167.1L168.6,167.1z M224.6,249.9c0-11.3,8.9-20.2,20.2-20.2c11.3,0,20.2,8.9,20.2,20.2c0,11.3-8.9,20.2-20.2,20.2
			C233.5,270.1,224.6,261.1,224.6,249.9z"/>
	</g>
</g>
</svg>
